<svg width="78" height="32" viewBox="0 0 78 32" fill="none" xmlns="http://www.w3.org/2000/svg">
<path d="M30.0591 21H28.2524V10.4336H30.0591V21ZM28.106 7.63086C28.106 7.33789 28.1938 7.09049 28.3696 6.88867C28.5519 6.68685 28.8188 6.58594 29.1704 6.58594C29.522 6.58594 29.7889 6.68685 29.9712 6.88867C30.1535 7.09049 30.2446 7.33789 30.2446 7.63086C30.2446 7.92383 30.1535 8.16797 29.9712 8.36328C29.7889 8.55859 29.522 8.65625 29.1704 8.65625C28.8188 8.65625 28.5519 8.55859 28.3696 8.36328C28.1938 8.16797 28.106 7.92383 28.106 7.63086ZM38.0669 12.0547C37.7935 12.0091 37.4972 11.9863 37.1782 11.9863C35.9933 11.9863 35.1893 12.4909 34.7661 13.5V21H32.9595V10.4336H34.7173L34.7466 11.6543C35.339 10.7103 36.1789 10.2383 37.2661 10.2383C37.6177 10.2383 37.8846 10.2839 38.0669 10.375V12.0547ZM41.6997 21H39.8931V6H41.6997V21ZM44.1216 15.6191C44.1216 14.584 44.3234 13.653 44.7271 12.8262C45.1372 11.9993 45.7036 11.3613 46.4263 10.9121C47.1554 10.4629 47.9855 10.2383 48.9165 10.2383C50.3553 10.2383 51.5174 10.7363 52.4028 11.7324C53.2948 12.7285 53.7407 14.0534 53.7407 15.707V15.834C53.7407 16.8626 53.5422 17.7871 53.145 18.6074C52.7544 19.4212 52.1912 20.056 51.4556 20.5117C50.7264 20.9674 49.8866 21.1953 48.936 21.1953C47.5037 21.1953 46.3416 20.6973 45.4497 19.7012C44.5643 18.7051 44.1216 17.3867 44.1216 15.7461V15.6191ZM45.938 15.834C45.938 17.0059 46.2082 17.9466 46.7485 18.6562C47.2954 19.3659 48.0246 19.7207 48.936 19.7207C49.854 19.7207 50.5832 19.3626 51.1235 18.6465C51.6639 17.9238 51.9341 16.9147 51.9341 15.6191C51.9341 14.4603 51.6574 13.5228 51.104 12.8066C50.5571 12.084 49.828 11.7227 48.9165 11.7227C48.0246 11.7227 47.3052 12.0775 46.7583 12.7871C46.2114 13.4967 45.938 14.5124 45.938 15.834ZM62.5298 21C62.4256 20.7917 62.341 20.4206 62.2759 19.8867C61.436 20.7591 60.4334 21.1953 59.2681 21.1953C58.2264 21.1953 57.3703 20.9023 56.6997 20.3164C56.0356 19.724 55.7036 18.9753 55.7036 18.0703C55.7036 16.9701 56.1203 16.1172 56.9536 15.5117C57.7935 14.8997 58.9718 14.5938 60.4888 14.5938H62.2466V13.7637C62.2466 13.1322 62.0578 12.6309 61.6802 12.2598C61.3026 11.8822 60.7459 11.6934 60.0103 11.6934C59.3657 11.6934 58.8254 11.8561 58.3892 12.1816C57.953 12.5072 57.7349 12.901 57.7349 13.3633H55.9185C55.9185 12.8359 56.104 12.3281 56.4751 11.8398C56.8527 11.3451 57.3605 10.9544 57.9985 10.668C58.6431 10.3815 59.3494 10.2383 60.1177 10.2383C61.3351 10.2383 62.2889 10.5443 62.979 11.1562C63.6691 11.7617 64.0272 12.5983 64.0532 13.666V18.5293C64.0532 19.4993 64.1769 20.2708 64.4243 20.8438V21H62.5298ZM59.5317 19.623C60.0981 19.623 60.6353 19.4766 61.1431 19.1836C61.6509 18.8906 62.0187 18.5098 62.2466 18.041V15.873H60.8306C58.617 15.873 57.5103 16.5208 57.5103 17.8164C57.5103 18.3828 57.6991 18.8255 58.0767 19.1445C58.4543 19.4635 58.9393 19.623 59.5317 19.623ZM66.4458 15.6289C66.4458 14.0078 66.8299 12.7057 67.5981 11.7227C68.3664 10.7331 69.3722 10.2383 70.6157 10.2383C71.8527 10.2383 72.8325 10.6615 73.5552 11.5078V6H75.3618V21H73.7017L73.6138 19.8672C72.8911 20.7526 71.8853 21.1953 70.5962 21.1953C69.3722 21.1953 68.3729 20.694 67.5981 19.6914C66.8299 18.6888 66.4458 17.3802 66.4458 15.7656V15.6289ZM68.2524 15.834C68.2524 17.0319 68.4998 17.9694 68.9946 18.6465C69.4894 19.3236 70.173 19.6621 71.0454 19.6621C72.1912 19.6621 73.0278 19.1478 73.5552 18.1191V13.2656C73.0148 12.2695 72.1847 11.7715 71.0649 11.7715C70.1795 11.7715 69.4894 12.1133 68.9946 12.7969C68.4998 13.4805 68.2524 14.4928 68.2524 15.834Z" fill="black"/>
<path d="M15.8036 0.540408L7.17477 22.5053C7.14568 22.5946 7.14235 22.6903 7.16517 22.7815C7.18799 22.8726 7.23603 22.9555 7.30379 23.0206C7.37154 23.0857 7.45627 23.1304 7.54826 23.1496C7.64025 23.1687 7.73578 23.1616 7.82389 23.1289L15.9471 17.448L25.0851 22.7959C25.1742 22.8255 25.2699 22.8295 25.3612 22.8073C25.4525 22.7851 25.5356 22.7376 25.6012 22.6703C25.6667 22.603 25.712 22.5186 25.7317 22.4267C25.7515 22.3349 25.745 22.2393 25.713 22.151L16.7334 0.528387C16.6954 0.435634 16.6303 0.356472 16.5466 0.301176C16.463 0.245879 16.3647 0.217004 16.2644 0.218301C16.1642 0.219597 16.0666 0.251005 15.9844 0.308444C15.9023 0.365883 15.8393 0.446702 15.8036 0.540408Z" fill="#FF4C2A"/>
</svg>
