<svg width="17" height="17" viewBox="0 0 17 17" fill="none" xmlns="http://www.w3.org/2000/svg">
<path d="M6.35199 13.5618C6.35199 13.6268 6.27799 13.6778 6.18399 13.6778C6.08999 13.6778 5.99999 13.6378 5.99999 13.5618C5.99999 13.4858 6.07399 13.4458 6.16799 13.4458C6.26199 13.4458 6.35199 13.4878 6.35199 13.5618ZM5.35199 13.4168C5.32899 13.4818 5.39399 13.5558 5.49099 13.5748C5.52624 13.5921 5.56683 13.595 5.60416 13.5829C5.6415 13.5707 5.67264 13.5445 5.69099 13.5098C5.70999 13.4448 5.64899 13.3708 5.55199 13.3418C5.51465 13.3277 5.47347 13.3275 5.43601 13.3413C5.39854 13.3551 5.36729 13.3819 5.34799 13.4168H5.35199ZM6.77799 13.3618C6.68399 13.3848 6.61999 13.4458 6.62999 13.5198C6.63999 13.5938 6.72399 13.6258 6.81999 13.6038C6.91599 13.5818 6.97799 13.5198 6.96799 13.4558C6.95799 13.3918 6.86799 13.3518 6.77399 13.3618H6.77799ZM8.89999 1.00082C7.85895 0.978445 6.82412 1.16649 5.85751 1.55369C4.8909 1.9409 4.01242 2.51928 3.27472 3.25417C2.53703 3.98906 1.95531 4.86533 1.56444 5.83046C1.17356 6.79559 0.981575 7.8297 0.999989 8.87082C0.98619 10.5682 1.50687 12.227 2.48825 13.612C3.46964 14.997 4.86197 16.0381 6.46799 16.5878C6.88099 16.6618 7.02599 16.4068 7.02599 16.1978C7.02599 15.9888 7.01599 14.8978 7.01599 14.2168C7.01599 14.2168 4.75799 14.7008 4.28399 13.2558C4.28399 13.2558 3.91599 12.3168 3.38399 12.0748C3.38399 12.0748 2.64499 11.5688 3.43599 11.5748C3.69326 11.6093 3.93922 11.7021 4.15503 11.8464C4.37084 11.9906 4.55075 12.1823 4.68099 12.4068C4.78867 12.608 4.93562 12.7855 5.11314 12.9288C5.29066 13.0721 5.49514 13.1783 5.71447 13.2412C5.93379 13.304 6.1635 13.3222 6.38998 13.2947C6.61647 13.2671 6.83512 13.1944 7.03299 13.0808C7.07465 12.6699 7.25692 12.2859 7.54899 11.9938C5.74899 11.7938 3.92599 11.5328 3.92599 8.42882C3.90801 8.07594 3.96674 7.72336 4.09811 7.39536C4.22948 7.06735 4.43039 6.77172 4.68699 6.52882C4.44319 5.81298 4.4742 5.03207 4.77399 4.33782C5.44799 4.13282 6.99999 5.21282 6.99999 5.21282C8.32591 4.84717 9.72607 4.84717 11.052 5.21282C11.052 5.21282 12.6 4.12982 13.277 4.33782C13.5757 5.03211 13.6057 5.81268 13.361 6.52782C13.6272 6.76682 13.8392 7.06002 13.9827 7.38774C14.1262 7.71546 14.1979 8.07009 14.193 8.42782C14.193 11.5408 12.293 11.7888 10.493 11.9928C10.6873 12.1884 10.8369 12.4238 10.9315 12.6827C11.0261 12.9417 11.0634 13.218 11.041 13.4928C11.041 14.5798 11.031 15.9248 11.031 16.1928C11.031 16.4028 11.179 16.6578 11.589 16.5828C13.1898 16.0335 14.5755 14.9914 15.5476 13.606C16.5196 12.2206 17.028 10.563 17 8.87082C16.995 7.81925 16.7803 6.77924 16.3686 5.81161C15.9569 4.84397 15.3564 3.96815 14.6022 3.23536C13.848 2.50256 12.9552 1.92751 11.9761 1.54383C10.997 1.16015 9.95127 0.975549 8.89999 1.00082ZM4.13499 12.1258C4.09299 12.1578 4.10299 12.2318 4.15799 12.2938C4.21299 12.3558 4.28399 12.3678 4.32599 12.3258C4.36799 12.2838 4.35799 12.2198 4.30299 12.1578C4.24799 12.0958 4.17699 12.0838 4.13499 12.1258ZM3.78699 11.8648C3.76399 11.9068 3.79699 11.9588 3.86099 11.9908C3.8825 12.0061 3.90919 12.0123 3.93523 12.008C3.96126 12.0036 3.98454 11.9892 3.99999 11.9678C4.02299 11.9258 3.98999 11.8738 3.92599 11.8418C3.86199 11.8098 3.80999 11.8328 3.78699 11.8648ZM4.83199 13.0128C4.77999 13.0548 4.79999 13.1518 4.87399 13.2128C4.94799 13.2738 5.04199 13.2968 5.08399 13.2448C5.12599 13.1928 5.10699 13.1058 5.04199 13.0448C4.97699 12.9838 4.87399 12.9618 4.83199 13.0128ZM4.46499 12.5378C4.41299 12.5698 4.41299 12.6538 4.46499 12.7278C4.51699 12.8018 4.60399 12.8338 4.64599 12.8018C4.67122 12.7746 4.68524 12.7389 4.68524 12.7018C4.68524 12.6647 4.67122 12.629 4.64599 12.6018C4.59999 12.5298 4.51599 12.4968 4.46499 12.5378Z" fill="black"/>
</svg>
