<svg xmlns="http://www.w3.org/2000/svg" width="110.036" height="35.918" viewBox="0 0 110.036 35.918">
  <g id="google-2015_1_" data-name="google-2015 (1)" transform="translate(0.003)">
    <path id="Tracé_43" data-name="Tracé 43" d="M13.549,0h.979a13.352,13.352,0,0,1,9.139,3.859c-.886.9-1.791,1.772-2.659,2.677A9.986,9.986,0,0,0,4.244,12.554a10.278,10.278,0,0,0,2.234,7.939,9.882,9.882,0,0,0,7.2,3.545,9.585,9.585,0,0,0,7.163-2.455,7.82,7.82,0,0,0,2.382-5.1c-3.065,0-6.13.018-9.194,0v-3.8H26.934c.665,4.08-.3,8.677-3.4,11.594A12.618,12.618,0,0,1,15.691,27.8,14.411,14.411,0,0,1,7.438,26.18,14.209,14.209,0,0,1,.847,18.665,13.613,13.613,0,0,1,.755,9.453,14.056,14.056,0,0,1,5.832,2.714,14.494,14.494,0,0,1,13.549,0Z" transform="translate(0)" fill="#3780ff"/>
    <path id="Tracé_44" data-name="Tracé 44" d="M474.4,5.2h3.951V31.564c-1.311,0-2.64.018-3.951-.018.018-8.77,0-17.558,0-26.346Z" transform="translate(-386.817 -4.24)" fill="#38b137"/>
    <path id="Tracé_45" data-name="Tracé 45" d="M161.524,53.977a9.277,9.277,0,0,1,7.09,1.514,8.672,8.672,0,0,1,3.489,5.539,8.928,8.928,0,0,1-9.379,10.708,8.985,8.985,0,0,1-6.72-3.6,9.229,9.229,0,0,1-1.219-8.382,8.761,8.761,0,0,1,6.739-5.779m.554,3.508a4.964,4.964,0,0,0-2.585,1.643,5.856,5.856,0,0,0,.3,7.625,4.916,4.916,0,0,0,4.394,1.366,4.972,4.972,0,0,0,3.434-2.529,5.839,5.839,0,0,0-1-6.942A4.981,4.981,0,0,0,162.078,57.485Z" transform="translate(-125.801 -43.878)" fill="#fa3913"/>
    <path id="Tracé_46" data-name="Tracé 46" d="M267.549,53.971a8.976,8.976,0,0,1,8.788,14.456,9.132,9.132,0,0,1-14.308-.3,9.318,9.318,0,0,1-1.163-8.567,8.769,8.769,0,0,1,6.683-5.594m.554,3.508a5.048,5.048,0,0,0-2.585,1.625,5.864,5.864,0,0,0,.2,7.551,4.94,4.94,0,0,0,4.5,1.459,5.065,5.065,0,0,0,3.434-2.529,5.87,5.87,0,0,0-1.034-6.96,4.949,4.949,0,0,0-4.523-1.145Z" transform="translate(-212.257 -43.872)" fill="#fcbd06"/>
    <path id="Tracé_47" data-name="Tracé 47" d="M370.289,55.039a7.548,7.548,0,0,1,7.237-.554,6.9,6.9,0,0,1,1.883,1.385c.018-.5,0-1.015.018-1.532,1.237.018,2.474,0,3.729.018V70.64a9.731,9.731,0,0,1-2.419,6.85,8.8,8.8,0,0,1-7.588,2.179,8.585,8.585,0,0,1-6.462-5.151c1.108-.535,2.271-.96,3.416-1.459a5.077,5.077,0,0,0,3.6,3.1,4.785,4.785,0,0,0,4.616-1.477c1.145-1.4,1.145-3.323,1.089-5.04a6.554,6.554,0,0,1-3.009,1.846,8.114,8.114,0,0,1-7.367-1.9,9.088,9.088,0,0,1,1.255-14.548M374.11,57.4a4.857,4.857,0,0,0-2.9,1.68,5.89,5.89,0,0,0,.018,7.4,4.831,4.831,0,0,0,4.154,1.7,4.691,4.691,0,0,0,3.526-2.345,6.232,6.232,0,0,0-.628-6.979A4.543,4.543,0,0,0,374.11,57.4Z" transform="translate(-298.398 -43.869)" fill="#3780ff"/>
    <path id="Tracé_48" data-name="Tracé 48" d="M509.137,55.93a8.332,8.332,0,0,1,8.474-1.68c2.7,1.015,4.412,3.582,5.28,6.222-4.006,1.662-7.994,3.3-12,4.966a4.761,4.761,0,0,0,2.548,2.4,5.172,5.172,0,0,0,4.874-.7,7.86,7.86,0,0,0,1.366-1.459c1.015.683,2.031,1.348,3.046,2.031a9.039,9.039,0,0,1-14.271.9,9.464,9.464,0,0,1,.683-12.684m1.975,3.416a5.271,5.271,0,0,0-.868,3.1q4.016-1.662,8.031-3.342a3.321,3.321,0,0,0-2.6-1.828A4.718,4.718,0,0,0,511.113,59.345Z" transform="translate(-412.858 -43.818)" fill="#fa3913"/>
  </g>
</svg>
