<svg xmlns="http://www.w3.org/2000/svg" width="75.727" height="49.939" viewBox="0 0 75.727 49.939">
  <g id="intel" transform="translate(0 0)">
    <path id="Tracé_49" data-name="Tracé 49" d="M35.971,44.517C21.007,45.9,5.411,43.723,3.226,32.029,2.158,26.264,4.787,20.15,8.271,16.351V14.322C2,19.826-1.406,26.79.553,35.017c2.5,10.552,15.885,16.528,36.317,14.543,8.087-.784,18.664-3.384,26.022-7.426V36.4c-6.678,3.979-17.721,7.266-26.921,8.119Zm39.42-30.332C71.842-3.145,38.2-4.243,16.506,8.96v1.458C38.17-.72,68.9-.653,71.7,15.311c.939,5.281-2.036,10.782-7.35,13.95V33.4c6.393-2.345,12.95-9.929,11.043-19.218Z" transform="translate(0 0)" fill="#0e7dc2"/>
    <path id="Tracé_50" data-name="Tracé 50" d="M133.631,87.712h-3.923v17.474c0,2.048.99,3.829,3.923,4.113Zm-46.717,6.38H82.983l0,11.417c0,2.055.993,3.834,3.933,4.113V94.092Zm-3.931-5.849H86.9v3.719H82.983Zm27.427,21.2a4.19,4.19,0,0,1-4.52-4.381V89.9h3.889v4.191h2.929v3.141H109.78v7.586a1.207,1.207,0,0,0,1.345,1.38h1.584v3.241h-2.3m7.157-6.458a3.231,3.231,0,0,0,3.447,3.453,4.394,4.394,0,0,0,3.572-1.463l2.4,2.289a7.683,7.683,0,0,1-6,2.448c-3.722,0-7.288-2.031-7.288-7.954,0-5.063,3.116-7.925,7.2-7.925,4.153,0,6.54,3.35,6.54,7.748v1.4h-9.872m3.161-5.935a2.986,2.986,0,0,0-2.788,1.61,4.02,4.02,0,0,0-.374,1.672h5.994C123.485,98.659,122.727,97.049,120.729,97.049Zm-23.251.185c1.14,0,1.615.564,1.615,1.479v10.751h3.89V98.69A4.26,4.26,0,0,0,98.4,94.1l-8.036,0v15.372h3.892V97.234h3.219Zm40.375-6.4a1.561,1.561,0,1,1,1.567-1.561A1.553,1.553,0,0,1,137.852,90.834Zm0-2.862a1.3,1.3,0,1,0,1.3,1.3A1.312,1.312,0,0,0,137.852,87.972Zm.692,2.237h-.292a.066.066,0,0,1-.059-.039L137.8,89.5a.117.117,0,0,0-.055-.031h-.181v.669a.069.069,0,0,1-.066.072h-.263a.071.071,0,0,1-.066-.072V88.451c0-.1.033-.139.119-.152s.341-.023.479-.023c.487,0,.772.143.772.595V88.9a.473.473,0,0,1-.351.5l.411.7a.126.126,0,0,1,.01.049.056.056,0,0,1-.064.057Zm-.378-1.338c0-.188-.117-.248-.368-.248h-.248v.535c.039,0,.216.008.248.008.251,0,.368-.084.368-.262Z" transform="translate(-71.948 -76.051)" fill="#0e7dc2"/>
  </g>
</svg>
