<svg width="78" height="33" viewBox="0 0 78 33" fill="none" xmlns="http://www.w3.org/2000/svg">
<path d="M29.7871 21.0571H27.9805V10.4907H29.7871V21.0571ZM27.834 7.68799C27.834 7.39502 27.9219 7.14762 28.0977 6.9458C28.2799 6.74398 28.5469 6.64307 28.8984 6.64307C29.25 6.64307 29.5169 6.74398 29.6992 6.9458C29.8815 7.14762 29.9727 7.39502 29.9727 7.68799C29.9727 7.98096 29.8815 8.2251 29.6992 8.42041C29.5169 8.61572 29.25 8.71338 28.8984 8.71338C28.5469 8.71338 28.2799 8.61572 28.0977 8.42041C27.9219 8.2251 27.834 7.98096 27.834 7.68799ZM37.7949 12.1118C37.5215 12.0662 37.2253 12.0435 36.9062 12.0435C35.7214 12.0435 34.9173 12.548 34.4941 13.5571V21.0571H32.6875V10.4907H34.4453L34.4746 11.7114C35.0671 10.7674 35.9069 10.2954 36.9941 10.2954C37.3457 10.2954 37.6126 10.341 37.7949 10.4321V12.1118ZM41.4277 21.0571H39.6211V6.05713H41.4277V21.0571ZM43.8496 15.6763C43.8496 14.6411 44.0514 13.7101 44.4551 12.8833C44.8652 12.0565 45.4316 11.4185 46.1543 10.9692C46.8835 10.52 47.7135 10.2954 48.6445 10.2954C50.0833 10.2954 51.2454 10.7935 52.1309 11.7896C53.0228 12.7856 53.4688 14.1105 53.4688 15.7642V15.8911C53.4688 16.9198 53.2702 17.8442 52.873 18.6646C52.4824 19.4784 51.9193 20.1131 51.1836 20.5688C50.4544 21.0246 49.6146 21.2524 48.6641 21.2524C47.2318 21.2524 46.0697 20.7544 45.1777 19.7583C44.2923 18.7622 43.8496 17.4438 43.8496 15.8032V15.6763ZM45.666 15.8911C45.666 17.063 45.9362 18.0037 46.4766 18.7134C47.0234 19.423 47.7526 19.7778 48.6641 19.7778C49.582 19.7778 50.3112 19.4198 50.8516 18.7036C51.3919 17.981 51.6621 16.9718 51.6621 15.6763C51.6621 14.5174 51.3854 13.5799 50.832 12.8638C50.2852 12.1411 49.556 11.7798 48.6445 11.7798C47.7526 11.7798 47.0332 12.1346 46.4863 12.8442C45.9395 13.5539 45.666 14.5695 45.666 15.8911ZM62.2578 21.0571C62.1536 20.8488 62.069 20.4777 62.0039 19.9438C61.1641 20.8162 60.1615 21.2524 58.9961 21.2524C57.9544 21.2524 57.0983 20.9595 56.4277 20.3735C55.7637 19.7811 55.4316 19.0324 55.4316 18.1274C55.4316 17.0272 55.8483 16.1743 56.6816 15.5688C57.5215 14.9569 58.6999 14.6509 60.2168 14.6509H61.9746V13.8208C61.9746 13.1893 61.7858 12.688 61.4082 12.3169C61.0306 11.9393 60.474 11.7505 59.7383 11.7505C59.0938 11.7505 58.5534 11.9132 58.1172 12.2388C57.681 12.5643 57.4629 12.9582 57.4629 13.4204H55.6465C55.6465 12.8931 55.832 12.3853 56.2031 11.897C56.5807 11.4022 57.0885 11.0116 57.7266 10.7251C58.3711 10.4386 59.0775 10.2954 59.8457 10.2954C61.0632 10.2954 62.0169 10.6014 62.707 11.2134C63.3971 11.8188 63.7552 12.6554 63.7812 13.7231V18.5864C63.7812 19.5565 63.9049 20.328 64.1523 20.9009V21.0571H62.2578ZM59.2598 19.6802C59.8262 19.6802 60.3633 19.5337 60.8711 19.2407C61.3789 18.9478 61.7467 18.5669 61.9746 18.0981V15.9302H60.5586C58.3451 15.9302 57.2383 16.578 57.2383 17.8735C57.2383 18.4399 57.4271 18.8826 57.8047 19.2017C58.1823 19.5207 58.6673 19.6802 59.2598 19.6802ZM66.1738 15.686C66.1738 14.0649 66.5579 12.7629 67.3262 11.7798C68.0944 10.7902 69.1003 10.2954 70.3438 10.2954C71.5807 10.2954 72.5605 10.7186 73.2832 11.5649V6.05713H75.0898V21.0571H73.4297L73.3418 19.9243C72.6191 20.8097 71.6133 21.2524 70.3242 21.2524C69.1003 21.2524 68.1009 20.7511 67.3262 19.7485C66.5579 18.7459 66.1738 17.4373 66.1738 15.8228V15.686ZM67.9805 15.8911C67.9805 17.089 68.2279 18.0265 68.7227 18.7036C69.2174 19.3807 69.901 19.7192 70.7734 19.7192C71.9193 19.7192 72.7559 19.2049 73.2832 18.1763V13.3228C72.7428 12.3267 71.9128 11.8286 70.793 11.8286C69.9076 11.8286 69.2174 12.1704 68.7227 12.854C68.2279 13.5376 67.9805 14.55 67.9805 15.8911Z" fill="black"/>
<path d="M15.5316 0.597537L6.9028 22.5624C6.8737 22.6517 6.87038 22.7475 6.8932 22.8386C6.91601 22.9298 6.96406 23.0127 7.03181 23.0778C7.09957 23.1429 7.1843 23.1875 7.27629 23.2067C7.36828 23.2259 7.46381 23.2187 7.55192 23.1861L15.6752 17.5052L24.8131 22.853C24.9022 22.8827 24.9979 22.8866 25.0892 22.8644C25.1805 22.8422 25.2637 22.7947 25.3292 22.7274C25.3947 22.6601 25.44 22.5757 25.4598 22.4838C25.4795 22.392 25.473 22.2964 25.441 22.2081L16.4615 0.585516C16.4234 0.492763 16.3583 0.413601 16.2747 0.358305C16.191 0.303008 16.0927 0.274133 15.9925 0.275429C15.8922 0.276726 15.7947 0.308133 15.7125 0.365573C15.6303 0.423012 15.5673 0.503831 15.5316 0.597537Z" fill="#FF4C2A"/>
</svg>
