<svg width="49" height="51" viewBox="0 0 49 51" fill="none" xmlns="http://www.w3.org/2000/svg">
<path fill-rule="evenodd" clip-rule="evenodd" d="M8.85199 9.05706C10.405 10.3191 10.988 10.2231 13.905 10.0281L41.405 8.37706C41.988 8.37706 41.505 7.79506 41.305 7.69906L36.739 4.40206C36.1544 3.90419 35.4719 3.53452 34.7355 3.31697C33.9991 3.09941 33.2253 3.0388 32.464 3.13906L5.83799 5.07706C4.86699 5.17706 4.67299 5.65906 5.05999 6.04806L8.85199 9.05706ZM10.503 15.4651V44.4021C10.503 45.9571 11.28 46.5391 13.029 46.4421L43.249 44.6931C44.999 44.5931 45.194 43.5271 45.194 42.2641V13.5231C45.194 12.2621 44.709 11.5821 43.638 11.6791L12.058 13.5231C10.893 13.6231 10.504 14.2041 10.504 15.4661L10.503 15.4651ZM40.336 17.0171C40.53 17.8921 40.336 18.7661 39.46 18.8641L38.004 19.1541V40.5141C36.9715 41.135 35.806 41.5011 34.604 41.5821C33.049 41.5821 32.659 41.0961 31.494 39.6411L21.968 24.6891V39.1551L24.982 39.8351C24.982 39.8351 24.982 41.5821 22.55 41.5821L15.85 41.9711C15.7474 41.6741 15.7605 41.3494 15.8865 41.0617C16.0125 40.7739 16.2422 40.5441 16.53 40.4181L18.279 39.9331V20.8021L15.85 20.6071C15.7885 20.3496 15.7841 20.0818 15.837 19.8225C15.8899 19.5632 15.9989 19.3185 16.1562 19.1057C16.3136 18.8929 16.5156 18.7171 16.7481 18.5905C16.9805 18.4639 17.2378 18.3897 17.502 18.3731L24.691 17.8921L34.603 33.0381V19.6381L32.076 19.3481C32.0329 19.116 32.0403 18.8774 32.0976 18.6485C32.155 18.4195 32.261 18.2057 32.4085 18.0214C32.556 17.8371 32.7414 17.6868 32.9522 17.5806C33.163 17.4744 33.3941 17.4149 33.63 17.4061L40.336 17.0171ZM3.60199 2.45506L31.302 0.415064C34.702 0.123064 35.578 0.315064 37.716 1.87106L46.557 8.08506C48.016 9.15406 48.502 9.44406 48.502 10.6091V44.6901C48.502 46.8261 47.724 48.0901 45.002 48.2821L12.836 50.2241C10.794 50.3241 9.82199 50.0301 8.75299 48.6701L2.24299 40.2231C1.23651 39.0958 0.652605 37.654 0.590989 36.1441V5.85206C0.541003 5.42627 0.581495 4.99471 0.709815 4.58564C0.838135 4.17657 1.05139 3.79921 1.33563 3.47825C1.61986 3.1573 1.96867 2.89998 2.35922 2.72314C2.74978 2.5463 3.17327 2.45393 3.60199 2.45206V2.45506Z" fill="black"/>
</svg>
