<svg width="199" height="51" viewBox="0 0 199 51" fill="none" xmlns="http://www.w3.org/2000/svg">
<path fill-rule="evenodd" clip-rule="evenodd" d="M64.065 39.6241L66.528 33.9011C69.3604 35.909 72.7563 36.9677 76.228 36.9251C78.809 36.9251 80.444 35.9301 80.444 34.4251C80.405 30.2091 64.979 33.5091 64.861 22.9391C64.822 17.5711 69.59 13.4391 76.347 13.4391C80.365 13.4391 84.375 14.4341 87.241 16.6991L84.936 22.5411C82.2633 20.7747 79.1538 19.7828 75.952 19.6751C73.844 19.6751 72.452 20.6701 72.452 21.9411C72.491 26.0781 88.035 23.8121 88.193 33.9091C88.193 39.3961 83.543 43.2561 76.865 43.2561C71.971 43.2481 67.479 42.0961 64.065 39.6331V39.6241ZM158.646 31.8411C157.873 33.2097 156.669 34.2838 155.221 34.8958C153.774 35.5077 152.164 35.6229 150.644 35.2235C149.124 34.824 147.779 33.9323 146.819 32.6878C145.86 31.4432 145.339 29.9157 145.339 28.3441C145.339 26.7724 145.86 25.245 146.819 24.0004C147.779 22.7558 149.124 21.8641 150.644 21.4646C152.164 21.0652 153.774 21.1804 155.221 21.7923C156.669 22.4043 157.873 23.4784 158.646 24.8471L165.446 21.0741C163.835 18.1937 161.314 15.9291 158.279 14.635C155.243 13.3408 151.864 13.0903 148.67 13.9226C145.477 14.7549 142.65 16.623 140.632 19.2343C138.614 21.8455 137.519 25.0524 137.519 28.3526C137.519 31.6527 138.614 34.8596 140.632 37.4708C142.65 40.0821 145.477 41.9502 148.67 42.7825C151.864 43.6148 155.243 43.3643 158.279 42.0701C161.314 40.776 163.835 38.5114 165.446 35.6311L158.646 31.8411ZM91.616 1.06006H100.126V42.6861H91.616V1.06006ZM168.782 1.06006V42.6861H177.292V30.1981L187.392 42.6871H198.286L185.439 27.8531L197.328 14.0141H186.908L177.285 25.5011V1.06006H168.782Z" fill="black"/>
<path d="M125.412 31.9101C124.691 33.0092 123.705 33.9093 122.545 34.5274C121.385 35.1455 120.087 35.4618 118.773 35.4471C116.901 35.4249 115.114 34.6658 113.798 33.3344C112.482 32.0029 111.744 30.2065 111.744 28.3346C111.744 26.4627 112.482 24.6663 113.798 23.3349C115.114 22.0034 116.901 21.2443 118.773 21.2221C120.098 21.2205 121.403 21.555 122.564 22.1941C123.725 22.8333 124.705 23.7564 125.412 24.8771V31.9101ZM125.412 14.0221V17.4011C124.023 15.0561 120.565 13.4221 116.941 13.4221C109.465 13.4221 103.584 20.0221 103.584 28.2951C103.584 36.5681 109.465 43.2471 116.941 43.2471C120.557 43.2471 124.014 41.6211 125.412 39.2681V42.6471H133.922V14.0221H125.412Z" fill="black"/>
<path fill-rule="evenodd" clip-rule="evenodd" d="M11.466 31.8721C11.466 32.9104 11.1581 33.9255 10.5812 34.7888C10.0043 35.6522 9.18441 36.3251 8.22509 36.7224C7.26578 37.1198 6.21018 37.2238 5.19178 37.0212C4.17338 36.8186 3.23792 36.3186 2.5037 35.5844C1.76947 34.8502 1.26946 33.9147 1.06688 32.8963C0.864311 31.8779 0.968278 30.8223 1.36564 29.863C1.763 28.9037 2.4359 28.0837 3.29926 27.5069C4.16262 26.93 5.17765 26.6221 6.21601 26.6221H11.466V31.8721ZM14.087 31.8721C14.087 31.1826 14.2228 30.4999 14.4866 29.863C14.7505 29.226 15.1372 28.6473 15.6247 28.1598C16.1122 27.6723 16.691 27.2855 17.3279 27.0217C17.9649 26.7579 18.6476 26.6221 19.337 26.6221C20.0264 26.6221 20.7091 26.7579 21.3461 27.0217C21.9831 27.2855 22.5618 27.6723 23.0493 28.1598C23.5368 28.6473 23.9235 29.226 24.1874 29.863C24.4512 30.4999 24.587 31.1826 24.587 31.8721V44.9921C24.587 46.3845 24.0339 47.7198 23.0493 48.7044C22.0648 49.6889 20.7294 50.2421 19.337 50.2421C17.9446 50.2421 16.6093 49.6889 15.6247 48.7044C14.6401 47.7198 14.087 46.3845 14.087 44.9921V31.8721Z" fill="#E01E5A"/>
<path fill-rule="evenodd" clip-rule="evenodd" d="M19.336 10.802C18.2977 10.802 17.2826 10.4941 16.4193 9.91722C15.5559 9.34034 14.883 8.5204 14.4856 7.56109C14.0883 6.60178 13.9843 5.54618 14.1869 4.52778C14.3895 3.50938 14.8895 2.57392 15.6237 1.83969C16.3579 1.10547 17.2934 0.605454 18.3118 0.402882C19.3302 0.200309 20.3858 0.304277 21.3451 0.701637C22.3044 1.099 23.1243 1.7719 23.7012 2.63526C24.2781 3.49862 24.586 4.51365 24.586 5.552V10.802H19.336ZM19.336 13.462C20.7284 13.462 22.0637 14.0151 23.0483 14.9997C24.0329 15.9843 24.586 17.3196 24.586 18.712C24.586 20.1044 24.0329 21.4397 23.0483 22.4243C22.0637 23.4089 20.7284 23.962 19.336 23.962H6.177C4.78462 23.962 3.44926 23.4089 2.46469 22.4243C1.48013 21.4397 0.927002 20.1044 0.927002 18.712C0.927002 17.3196 1.48013 15.9843 2.46469 14.9997C3.44926 14.0151 4.78462 13.462 6.177 13.462H19.336Z" fill="#36C5F0"/>
<path fill-rule="evenodd" clip-rule="evenodd" d="M40.367 18.711C40.367 17.6727 40.6749 16.6576 41.2518 15.7943C41.8287 14.9309 42.6486 14.258 43.6079 13.8606C44.5672 13.4633 45.6228 13.3593 46.6412 13.5619C47.6596 13.7645 48.5951 14.2645 49.3293 14.9987C50.0635 15.7329 50.5636 16.6684 50.7661 17.6868C50.9687 18.7052 50.8647 19.7608 50.4674 20.7201C50.07 21.6794 49.3971 22.4993 48.5337 23.0762C47.6704 23.6531 46.6553 23.961 45.617 23.961H40.367V18.711ZM37.746 18.711C37.746 20.1034 37.1929 21.4387 36.2083 22.4233C35.2237 23.4079 33.8884 23.961 32.496 23.961C31.1036 23.961 29.7682 23.4079 28.7837 22.4233C27.7991 21.4387 27.246 20.1034 27.246 18.711V5.552C27.246 4.15962 27.7991 2.82426 28.7837 1.83969C29.7682 0.855125 31.1036 0.302002 32.496 0.302002C33.8884 0.302002 35.2237 0.855125 36.2083 1.83969C37.1929 2.82426 37.746 4.15962 37.746 5.552V18.711Z" fill="#2EB67D"/>
<path fill-rule="evenodd" clip-rule="evenodd" d="M32.497 39.7421C33.5353 39.7421 34.5504 40.05 35.4137 40.6269C36.2771 41.2038 36.95 42.0237 37.3474 42.983C37.7447 43.9423 37.8487 44.9979 37.6461 46.0163C37.4436 47.0347 36.9435 47.9702 36.2093 48.7044C35.4751 49.4386 34.5396 49.9387 33.5212 50.1412C32.5028 50.3438 31.4472 50.2398 30.4879 49.8425C29.5286 49.4451 28.7087 48.7722 28.1318 47.9088C27.5549 47.0455 27.247 46.0304 27.247 44.9921V39.7421H32.497ZM32.497 37.1211C31.1046 37.1211 29.7692 36.568 28.7847 35.5834C27.8001 34.5988 27.247 33.2635 27.247 31.8711C27.247 30.4787 27.8001 29.1433 28.7847 28.1588C29.7692 27.1742 31.1046 26.6211 32.497 26.6211H45.657C47.0494 26.6211 48.3847 27.1742 49.3693 28.1588C50.3539 29.1433 50.907 30.4787 50.907 31.8711C50.907 33.2635 50.3539 34.5988 49.3693 35.5834C48.3847 36.568 47.0494 37.1211 45.657 37.1211H32.497Z" fill="#ECB22E"/>
</svg>
