<svg width="51" height="50" viewBox="0 0 51 50" fill="none" xmlns="http://www.w3.org/2000/svg">
<path d="M45 0H6C2.68629 0 0 2.68629 0 6V44C0 47.3137 2.68629 50 6 50H45C48.3137 50 51 47.3137 51 44V6C51 2.68629 48.3137 0 45 0Z" fill="url(#paint0_linear)"/>
<path d="M41.131 6.79395H31.9C30.2431 6.79395 28.9 8.13709 28.9 9.79395V25.6419C28.9 27.2988 30.2431 28.6419 31.9 28.6419H41.131C42.7879 28.6419 44.131 27.2988 44.131 25.6419V9.79395C44.131 8.13709 42.7879 6.79395 41.131 6.79395Z" fill="white"/>
<path d="M19.407 6.79395H10.176C8.51914 6.79395 7.176 8.13709 7.176 9.79395V38.1269C7.176 39.7838 8.51914 41.1269 10.176 41.1269H19.407C21.0639 41.1269 22.407 39.7838 22.407 38.1269V9.79395C22.407 8.13709 21.0639 6.79395 19.407 6.79395Z" fill="white"/>
<defs>
<linearGradient id="paint0_linear" x1="25.5" y1="0" x2="25.5" y2="50" gradientUnits="userSpaceOnUse">
<stop stop-color="#0091E6"/>
<stop offset="1" stop-color="#0079BF"/>
</linearGradient>
</defs>
</svg>
