<svg width="170" height="51" viewBox="0 0 170 51" fill="none" xmlns="http://www.w3.org/2000/svg">
<path d="M21.902 0.414982C19.4609 0.770771 17.0751 1.43578 14.802 2.39398C14.482 2.53398 14.062 2.71398 13.902 2.77398C13.5899 2.92546 13.2891 3.09924 13.002 3.29398C12.682 3.51398 12.222 3.77398 12.002 3.89398C11.0864 4.39733 10.2243 4.99238 9.42898 5.66998C7.79762 6.87663 6.36729 8.33361 5.19098 9.98698C3.80396 11.7124 2.67917 13.6331 1.85298 15.687C1.69298 16.067 1.41298 16.726 1.23298 17.146C1.06768 17.5137 0.959754 17.9046 0.91298 18.305C0.883586 18.6336 0.788361 18.9529 0.63298 19.244C0.123937 21.2472 -0.0783632 23.3161 0.0329794 25.38C0.0529794 28.698 0.51298 31.696 1.23298 33.135C1.37233 33.3975 1.46696 33.6814 1.51298 33.975C2.17589 35.5509 2.93017 37.0869 3.77198 38.575C5.21098 40.975 9.57198 45.351 11.308 46.131C11.6177 46.2943 11.9181 46.4746 12.208 46.671C13.3837 47.3943 14.6294 47.9973 15.926 48.471C16.1804 48.5119 16.4208 48.615 16.626 48.771C16.9185 48.9591 17.2573 49.0629 17.605 49.071C17.9008 49.0574 18.1938 49.1341 18.445 49.291C18.665 49.511 19.764 49.711 23.162 50.111C24.4557 50.2911 25.7682 50.2911 27.062 50.111C30.94 49.651 31.719 49.471 33.462 48.752C33.7843 48.6043 34.1284 48.5097 34.481 48.472C34.7176 48.4521 34.9385 48.3452 35.101 48.172C35.234 48.0144 35.418 47.9083 35.621 47.872C36.3581 47.649 37.0585 47.3191 37.7 46.893C38.0666 46.5904 38.4697 46.3351 38.9 46.133C41.3765 44.461 43.5752 42.4107 45.416 40.057C45.576 39.737 45.776 39.477 45.876 39.477C45.976 39.477 46.096 39.317 46.176 39.117C46.3164 38.7907 46.4836 38.4766 46.676 38.178C47.3771 36.9935 47.9852 35.7565 48.495 34.478C48.5553 34.2201 48.6495 33.9712 48.775 33.738C49.2321 32.7702 49.5419 31.7394 49.694 30.68C49.7344 30.235 49.8353 29.7976 49.994 29.38C50.4042 26.6285 50.4042 23.8314 49.994 21.08C49.8363 20.6417 49.7355 20.1849 49.694 19.721C49.5142 18.5695 49.1641 17.4513 48.655 16.403C48.5637 16.2656 48.5086 16.1074 48.495 15.943C48.0343 14.7161 47.4797 13.5265 46.836 12.385C45.691 10.6874 44.4041 9.08998 42.989 7.60998C41.13 5.77098 37.832 3.29298 37.212 3.29298C37.0073 3.26127 36.8219 3.15428 36.692 2.99298C36.5663 2.83669 36.389 2.73032 36.192 2.69298C35.8977 2.64985 35.6133 2.55506 35.352 2.41298C34.6178 2.00162 33.8308 1.69244 33.013 1.49398C32.7174 1.44479 32.4329 1.34319 32.173 1.19398C31.8228 1.02275 31.4428 0.920879 31.054 0.893981C30.4796 0.843925 29.9108 0.74354 29.354 0.593981C26.8814 0.278634 24.3829 0.218316 21.898 0.413981L21.902 0.414982ZM29.577 6.81498C29.9682 6.96508 30.3785 7.05934 30.796 7.09498C31.0582 7.10575 31.3073 7.21252 31.496 7.39498C31.6584 7.56823 31.8793 7.67511 32.116 7.69498C32.716 7.69498 34.854 8.89498 36.493 10.114C38.012 11.253 40.493 13.732 40.493 14.092C40.4909 14.1171 40.494 14.1424 40.5021 14.1662C40.5102 14.1901 40.523 14.2121 40.5399 14.2308C40.5567 14.2495 40.5772 14.2646 40.6001 14.2751C40.623 14.2856 40.6478 14.2914 40.673 14.292C40.893 14.292 41.013 14.512 42.112 16.731C43.191 18.931 43.491 19.669 43.491 20.069C43.545 20.4938 43.6525 20.9101 43.811 21.308C44.2308 23.9497 44.2308 26.6412 43.811 29.283C43.651 29.783 43.351 30.722 43.171 31.383C43.026 31.9124 42.8178 32.4224 42.551 32.902C42.4026 33.0847 42.312 33.3075 42.291 33.542C42.2928 33.6277 42.2737 33.7125 42.2354 33.7892C42.197 33.8658 42.1406 33.932 42.071 33.982C41.9113 34.1484 41.7766 34.337 41.671 34.542C40.8475 36.1327 39.736 37.5567 38.393 38.742C35.8141 41.3002 32.5406 43.0447 28.979 43.759C26.5718 44.1464 24.1216 44.1868 21.703 43.879C21.323 43.759 20.644 43.579 20.203 43.479C15.985 42.56 11.228 39.022 8.76998 34.984C8.11178 33.8353 7.55661 32.6306 7.11098 31.384C7.06581 31.0586 6.97139 30.742 6.83098 30.445C6.29401 28.7261 5.98504 26.9443 5.91198 25.145C5.91831 24.4531 5.99199 23.7635 6.13198 23.086C6.25198 22.586 6.41198 21.727 6.51198 21.186C6.95311 19.1452 7.71561 17.1875 8.77098 15.386C10.1929 13.2954 11.9407 11.4463 13.948 9.90898C15.2202 8.96192 16.6289 8.21371 18.126 7.68998C18.3497 7.66481 18.5562 7.55799 18.706 7.38998C18.9002 7.20378 19.157 7.0968 19.426 7.08998C19.7747 7.06797 20.1172 6.98717 20.439 6.85098C21.798 6.29098 27.995 6.27098 29.574 6.81098L29.577 6.81498Z" fill="#E75252"/>
<path d="M16.445 14.527C15.2482 15.2519 14.3587 16.3904 13.945 17.727C13.7269 18.601 13.7535 19.5182 14.022 20.3781C14.2904 21.238 14.7903 22.0074 15.467 22.602C16.1869 23.2293 17.0723 23.636 18.0172 23.7733C18.9621 23.9106 19.9266 23.7728 20.7953 23.3764C21.664 22.98 22.4001 22.3417 22.9156 21.5379C23.4311 20.7341 23.7041 19.7989 23.702 18.844C23.6783 17.9585 23.4265 17.0941 22.971 16.3344C22.5156 15.5746 21.8718 14.9452 21.102 14.507C19.6031 13.9239 17.9388 13.931 16.445 14.527ZM29.197 14.447C28.2992 15.0049 27.5512 15.7735 27.018 16.686C26.4451 18.1566 26.4738 19.7935 27.098 21.243C27.4825 22.026 28.0812 22.6839 28.8247 23.1402C29.5681 23.5965 30.4257 23.8326 31.298 23.821C32.1263 23.8537 32.9495 23.6785 33.6927 23.3114C34.4359 22.9442 35.0753 22.3968 35.5525 21.7191C36.0298 21.0413 36.3298 20.2549 36.4251 19.4314C36.5203 18.608 36.4079 17.7738 36.098 17.005C35.678 16.066 34.419 14.686 33.998 14.686C33.8009 14.6487 33.6236 14.5423 33.498 14.386C33.115 13.947 29.997 13.987 29.198 14.447H29.197ZM16.567 27.079C15.5504 27.5903 14.741 28.4363 14.2751 29.4745C13.8092 30.5127 13.7152 31.6797 14.009 32.779C14.1152 33.2896 14.2972 33.7813 14.549 34.238C15.0752 34.9201 15.7437 35.4794 16.508 35.877C16.7572 35.915 16.9919 36.0186 17.188 36.177C17.868 36.697 19.747 36.557 20.926 35.917C21.965 35.377 23.305 33.978 23.305 33.438C23.3203 33.2612 23.3902 33.0935 23.505 32.958C23.676 32.6173 23.7585 32.239 23.745 31.858C23.7934 30.8737 23.5499 29.897 23.0449 29.0506C22.54 28.2042 21.7962 27.526 20.907 27.101C19.5135 26.5537 17.9659 26.5458 16.567 27.079ZM29.419 27.019C28.4165 27.5135 27.5818 28.2922 27.019 29.258C26.4894 30.7278 26.5107 32.3398 27.079 33.795C27.302 34.2961 27.6216 34.7483 28.0195 35.1258C28.4174 35.5033 28.8858 35.7987 29.398 35.995C30.6125 36.5435 31.9948 36.5884 33.2424 36.1199C34.4899 35.6513 35.5009 34.7074 36.054 33.495C36.5617 32.3365 36.6063 31.0274 36.1785 29.837C35.7507 28.6466 34.883 27.6654 33.754 27.095C32.3607 26.57 30.8288 26.5431 29.418 27.019H29.419ZM114.509 10.049L110.052 10.089V15.489H119.247V12.808C119.29 11.8863 119.243 10.9626 119.107 10.05C119.005 10.009 116.946 10.009 114.507 10.049H114.509ZM137.196 10.029L132.839 10.089V15.489L137.496 15.449L142.133 15.389L142.193 13.03C142.233 10.871 142.073 9.81202 141.673 9.93002C141.591 9.96602 139.573 10.009 137.194 10.029H137.196ZM121.683 25.12L121.743 40.171H130.538L130.598 25.12L130.638 10.089H121.643L121.683 25.12ZM67.775 10.429C67.555 10.469 66.616 10.769 65.675 11.069C64.734 11.369 63.436 11.769 62.775 11.969C62.114 12.169 61.275 12.449 60.916 12.609C60.619 12.7494 60.3024 12.8438 59.977 12.889C59.737 12.889 59.677 13.369 59.637 15.328L59.577 17.787L58.477 17.847C58.0452 17.8398 57.6187 17.943 57.238 18.147C57.0975 19.2337 57.044 20.3298 57.078 21.425V24.483H58.057C59.776 24.483 59.676 24.223 59.696 28.661C59.696 34.078 59.996 36.161 60.975 37.636C61.575 38.536 63.513 40.075 64.053 40.075C64.4364 40.131 64.812 40.2317 65.172 40.375C67.2133 40.76 69.3092 40.7532 71.348 40.355C72.767 40.055 74.066 39.515 74.066 39.216V33.136L72.087 33.236L70.087 33.336L69.487 32.716L68.867 32.116V28.416C68.867 25.238 68.907 24.698 69.187 24.598C70.0832 24.4967 70.9853 24.4566 71.887 24.478H74.267V21.878C74.267 19.739 74.327 19.278 74.547 19.278C74.947 19.278 75.067 19.498 75.267 20.637C75.3539 21.1721 75.4809 21.7 75.647 22.216C75.767 22.576 75.967 23.175 76.087 23.516C76.207 23.876 76.367 24.516 76.467 24.935C76.5225 25.2912 76.652 25.6318 76.847 25.935C76.9939 26.1309 77.0714 26.3702 77.067 26.615C77.1023 27.0244 77.1897 27.4277 77.327 27.815C77.487 28.235 77.727 28.894 77.847 29.274C78.0144 29.732 78.1546 30.1995 78.267 30.674C78.3698 31.1268 78.4967 31.5737 78.647 32.013C78.767 32.373 78.967 32.972 79.087 33.313C79.207 33.673 79.387 34.292 79.467 34.672C79.5698 35.1248 79.6967 35.5717 79.847 36.011C79.967 36.371 80.167 36.97 80.287 37.311C80.4465 37.8236 80.58 38.3439 80.687 38.87C80.987 40.329 80.987 40.329 84.964 40.329H88.502L88.882 39.749C89.0825 39.4416 89.2122 39.0936 89.262 38.73C89.2932 38.3503 89.3878 37.9785 89.542 37.63C89.702 37.27 89.982 36.43 90.182 35.771C90.3516 35.1461 90.5586 34.532 90.802 33.932C90.9276 33.6447 91.015 33.3421 91.062 33.032C91.1173 32.6911 91.2253 32.3608 91.382 32.053C92.162 30.334 92.241 30.334 92.861 32.073C92.981 32.453 93.161 33.032 93.261 33.373C93.361 33.693 93.541 34.292 93.661 34.673C93.801 35.053 93.981 35.632 94.101 35.973C94.201 36.293 94.361 36.912 94.461 37.332C94.5165 37.6882 94.646 38.0288 94.841 38.332C94.9997 38.5968 95.0762 38.9027 95.061 39.211C95.061 40.19 95.461 40.311 99.119 40.311C100.898 40.311 102.497 40.291 102.657 40.291C102.977 40.271 103.377 39.451 103.657 38.272C103.737 37.892 103.917 37.272 104.037 36.913C104.577 35.354 104.697 34.934 104.857 34.374C104.957 34.034 105.177 33.274 105.357 32.674C105.537 32.074 105.817 31.174 105.957 30.674C106.237 29.735 106.517 28.915 106.876 27.816C107.015 27.4104 107.128 26.9966 107.216 26.577C107.271 26.2238 107.393 25.8844 107.576 25.577C107.758 25.275 107.854 24.9295 107.856 24.577C107.864 24.2293 107.968 23.8906 108.156 23.598C108.338 23.3175 108.442 22.9932 108.456 22.659C108.48 22.2758 108.582 21.9016 108.756 21.559C108.925 21.2147 109.027 20.8414 109.056 20.459C109.073 20.1375 109.177 19.8265 109.356 19.559C109.616 19.239 109.676 19.219 109.856 19.479C109.976 19.679 110.056 23.479 110.056 29.913C110.056 37.449 110.116 40.087 110.296 40.187C113.163 40.4004 116.042 40.4138 118.911 40.227C119.231 40.067 119.251 39.327 119.251 28.994C119.251 19.08 119.211 17.921 118.931 17.801C118.751 17.741 114.853 17.681 110.256 17.681C100.961 17.681 101.401 17.621 101.141 19.04C101.046 19.5821 100.912 20.1168 100.741 20.64C100.593 21.0598 100.499 21.4966 100.461 21.94C100.42 22.2688 100.318 22.5872 100.161 22.879C99.9801 23.2187 99.8776 23.5946 99.861 23.979C99.8417 24.3631 99.7394 24.7384 99.561 25.079C99.3945 25.4097 99.2927 25.7692 99.261 26.138C99.2686 26.2671 99.2454 26.3961 99.1932 26.5143C99.1411 26.6326 99.0614 26.7367 98.961 26.818C98.561 26.958 98.461 26.858 98.261 26.038C98.161 25.678 98.001 25.079 97.881 24.719C97.201 22.74 96.781 21.319 96.442 19.982C96.3679 19.631 96.2397 19.2936 96.062 18.982C95.9361 18.767 95.8545 18.529 95.822 18.282L95.762 17.782L92.162 17.722L88.562 17.682L88.182 18.921C87.982 19.621 87.702 20.54 87.562 20.98C87.422 21.42 87.142 22.319 86.962 22.98C86.762 23.64 86.482 24.519 86.342 24.939C86.1962 25.2969 86.1019 25.6737 86.062 26.058C86.062 26.578 85.582 26.958 85.322 26.638C84.9099 25.7278 84.621 24.7666 84.463 23.78C84.367 23.3075 84.2468 22.8402 84.103 22.38C83.7521 21.315 83.478 20.2262 83.283 19.122C83.2407 18.7472 83.1179 18.386 82.923 18.063C80.6377 17.8481 78.3409 17.7813 76.047 17.863C72.369 17.883 69.247 17.803 69.131 17.723C68.951 17.603 68.871 16.544 68.831 13.985C68.774 10.149 68.774 10.189 67.775 10.429ZM153.724 17.529C151.042 17.9491 148.583 19.267 146.748 21.267C146.408 21.647 145.988 22.107 145.809 22.286C145.512 22.6636 145.257 23.0724 145.049 23.505C144.809 23.985 144.529 24.524 144.429 24.684C143.844 26.0666 143.571 27.561 143.629 29.061C143.629 31.38 143.949 32.519 145.408 35.217C146.229 36.377 147.211 37.4135 148.326 38.295C148.672 38.4647 149.007 38.6585 149.326 38.875C149.666 39.095 150.066 39.315 150.226 39.395C150.386 39.455 150.686 39.595 150.886 39.695C151.931 40.0903 153.017 40.3654 154.124 40.515C155.925 40.7288 157.749 40.6477 159.524 40.275C160.599 40.0021 161.639 39.6066 162.624 39.096C164.972 37.8085 166.849 35.8059 167.981 33.379C169.12 30.501 169.26 28.902 168.641 26.423C168.435 25.4601 168.077 24.536 167.582 23.685C167.502 23.525 167.342 23.205 167.242 22.985C166.762 21.906 163.464 18.885 162.765 18.885C162.554 18.8541 162.362 18.7474 162.225 18.585C162.044 18.4031 161.801 18.2959 161.545 18.285C161.315 18.2926 161.09 18.2221 160.905 18.085C159.363 17.5795 157.751 17.3229 156.128 17.325C155.325 17.3419 154.523 17.4087 153.728 17.525L153.724 17.529ZM157.462 24.829C158.024 25.0378 158.535 25.3631 158.962 25.7834C159.39 26.2038 159.723 26.7097 159.941 27.268C160.207 27.7361 160.362 28.2593 160.394 28.797C160.425 29.3347 160.332 29.8723 160.121 30.368C159.979 30.6172 159.878 30.8872 159.821 31.168C159.821 31.428 158.821 32.427 158.021 32.947C157.461 33.327 154.921 33.427 154.721 33.067C154.542 32.9005 154.331 32.7713 154.101 32.687C153.617 32.3542 153.214 31.9171 152.922 31.408C152.393 30.7413 152.142 29.8962 152.222 29.049C152.183 28.1664 152.412 27.2925 152.879 26.5427C153.346 25.7929 154.03 25.2024 154.84 24.849C155.242 24.6308 155.692 24.5141 156.15 24.5092C156.608 24.5044 157.06 24.6114 157.467 24.821L157.462 24.829ZM133.156 18.013C132.856 18.293 132.836 19.452 132.876 29.246L132.936 40.18L137.493 40.24L142.03 40.28L141.99 29.047L141.93 17.794L137.692 17.734C134.034 17.694 133.435 17.734 133.155 18.014L133.156 18.013Z" fill="#E75252"/>
</svg>
