<svg width="16" height="14" viewBox="0 0 16 14" fill="none" xmlns="http://www.w3.org/2000/svg">
<path d="M14.355 3.2399C14.365 3.3819 14.365 3.5239 14.365 3.6669C14.3738 4.89477 14.1385 6.11214 13.6727 7.24829C13.207 8.38445 12.5202 9.41673 11.6521 10.2852C10.784 11.1536 9.75205 11.8409 8.6161 12.3071C7.48014 12.7733 6.26287 13.0091 5.035 13.0009C3.2497 13.005 1.50124 12.4931 0 11.5269C0.262974 11.556 0.527426 11.5697 0.792 11.5679C2.26777 11.572 3.70189 11.0788 4.863 10.1679C4.1789 10.1546 3.51602 9.92807 2.9669 9.51986C2.41778 9.11165 2.00983 8.54216 1.8 7.8909C2.00476 7.9234 2.21168 7.94045 2.419 7.9419C2.71023 7.94096 3.00018 7.90333 3.282 7.8299C2.53897 7.67996 1.87078 7.27738 1.39098 6.69057C0.91117 6.10375 0.649347 5.3689 0.65 4.6109V4.5699C1.1043 4.82345 1.61211 4.966 2.132 4.9859C1.43607 4.52134 0.943571 3.80879 0.75496 2.99358C0.56635 2.17837 0.695832 1.32192 1.117 0.5989C1.94043 1.61298 2.96784 2.44264 4.13259 3.03406C5.29734 3.62548 6.5734 3.96544 7.878 4.0319C7.82639 3.78455 7.80025 3.53257 7.8 3.2799C7.80023 2.62203 7.99815 1.97941 8.3681 1.43541C8.73805 0.891415 9.26295 0.471153 9.87469 0.22915C10.4864 -0.0128523 11.1568 -0.0654252 11.7988 0.0782526C12.4408 0.22193 13.0248 0.555227 13.475 1.0349C14.2093 0.893435 14.9134 0.625449 15.556 0.2429C15.3115 1.00105 14.7988 1.64393 14.114 2.0509C14.7644 1.97677 15.4001 1.80589 16 1.5439C15.5513 2.19917 14.9952 2.77393 14.355 3.2439V3.2399Z" fill="black"/>
</svg>
