<svg id="uber-2" xmlns="http://www.w3.org/2000/svg" width="31.686" height="11" viewBox="0 0 31.686 11">
  <path id="Tracé_43" data-name="Tracé 43" d="M1.823,7.856a2.709,2.709,0,0,0,.556.912,2.393,2.393,0,0,0,.842.579,2.747,2.747,0,0,0,1.058.2,2.619,2.619,0,0,0,1.043-.209,2.565,2.565,0,0,0,.85-.587,2.662,2.662,0,0,0,.564-.9,3.265,3.265,0,0,0,.2-1.174V0H8.559V10.815H6.952v-1a3.724,3.724,0,0,1-1.275.881A4.039,4.039,0,0,1,4.094,11a4.287,4.287,0,0,1-1.614-.3,3.78,3.78,0,0,1-1.3-.857A4.045,4.045,0,0,1,.317,8.5,4.582,4.582,0,0,1,0,6.767V0H1.622V6.674a3.328,3.328,0,0,0,.2,1.182ZM11.355,0V3.94a4.132,4.132,0,0,1,1.251-.857,3.752,3.752,0,0,1,1.545-.317,4.074,4.074,0,0,1,1.622.324,4.087,4.087,0,0,1,2.194,2.194,4.036,4.036,0,0,1,.324,1.607,3.981,3.981,0,0,1-.324,1.6,4.107,4.107,0,0,1-2.194,2.186A4.074,4.074,0,0,1,14.152,11a3.805,3.805,0,0,1-1.553-.317,4.1,4.1,0,0,1-1.259-.857v.989H9.795V0Zm.178,7.956a2.688,2.688,0,0,0,.579.865,2.8,2.8,0,0,0,.865.587,2.63,2.63,0,0,0,1.066.216,2.592,2.592,0,0,0,1.051-.216,2.7,2.7,0,0,0,.857-.587,2.865,2.865,0,0,0,.579-.865,2.63,2.63,0,0,0,.216-1.066,2.685,2.685,0,0,0-.216-1.074,2.84,2.84,0,0,0-.579-.873,2.6,2.6,0,0,0-.857-.579,2.716,2.716,0,0,0-2.966.579,2.771,2.771,0,0,0-.587.873,2.685,2.685,0,0,0-.216,1.074,2.714,2.714,0,0,0,.209,1.066ZM19.172,5.3a4.2,4.2,0,0,1,.85-1.305,4.088,4.088,0,0,1,4.465-.9,3.738,3.738,0,0,1,1.251.857,3.919,3.919,0,0,1,.819,1.3,4.43,4.43,0,0,1,.294,1.63v.51H20.439a2.642,2.642,0,0,0,.309.888,2.678,2.678,0,0,0,.579.711,2.648,2.648,0,0,0,.788.471,2.573,2.573,0,0,0,.935.17,2.7,2.7,0,0,0,2.271-1.159l1.128.834a4.116,4.116,0,0,1-3.4,1.684,4.351,4.351,0,0,1-1.645-.309,4.007,4.007,0,0,1-1.329-.865A4.1,4.1,0,0,1,19.188,8.5,4.215,4.215,0,0,1,19.172,5.3Zm2.171-.61a2.633,2.633,0,0,0-.873,1.46h4.8a2.556,2.556,0,0,0-.857-1.46,2.429,2.429,0,0,0-3.074,0Zm8.428.178a2.092,2.092,0,0,0-.494,1.468v4.48h-1.56V2.935h1.545v.973a2.2,2.2,0,0,1,.765-.757,2.164,2.164,0,0,1,1.12-.278h.541V4.326h-.649a1.64,1.64,0,0,0-1.267.541Z" fill="#010202"/>
</svg>
