<svg width="20" height="24" viewBox="0 0 20 24" fill="none" xmlns="http://www.w3.org/2000/svg">
<path d="M9.53162 0.597537L0.902796 22.5624C0.873704 22.6517 0.870376 22.7475 0.893195 22.8386C0.916014 22.9298 0.964056 23.0127 1.03181 23.0778C1.09957 23.1429 1.1843 23.1875 1.27629 23.2067C1.36828 23.2259 1.46381 23.2187 1.55192 23.1861L9.67516 17.5052L18.8131 22.853C18.9022 22.8827 18.9979 22.8866 19.0892 22.8644C19.1805 22.8422 19.2637 22.7947 19.3292 22.7274C19.3947 22.6601 19.44 22.5757 19.4598 22.4838C19.4795 22.392 19.473 22.2964 19.441 22.2081L10.4615 0.585516C10.4234 0.492763 10.3583 0.413601 10.2747 0.358305C10.191 0.303008 10.0927 0.274133 9.99246 0.275429C9.8922 0.276726 9.79465 0.308133 9.71247 0.365573C9.63029 0.423012 9.56728 0.503831 9.53162 0.597537Z" fill="#FF4C2A"/>
</svg>
